<?xml version="1.0" encoding="UTF-8" standalone="no"?>
<!DOCTYPE svg PUBLIC "-//W3C//DTD SVG 1.1//EN" "http://www.w3.org/Graphics/SVG/1.1/DTD/svg11.dtd">
<svg width="100%" height="100%" viewBox="0 0 478 478" version="1.1" xmlns="http://www.w3.org/2000/svg" xmlns:xlink="http://www.w3.org/1999/xlink" xml:space="preserve" xmlns:serif="http://www.serif.com/" style="fill-rule:evenodd;clip-rule:evenodd;stroke-linejoin:round;stroke-miterlimit:2;">
    <g transform="matrix(4.16667,0,0,4.16667,0,0)">
        <g transform="matrix(0.763782,0.645475,-0.645475,0.763782,-193.558,-642.815)">
            <path d="M589.399,391.548C583.631,373.843 585.405,353.858 597.618,338.519L619.928,338.517L589.399,391.548Z" style="fill:rgb(255,108,12);fill-opacity:0.7;"/>
        </g>
        <g transform="matrix(0.940701,-0.339238,0.339238,0.940701,-674.301,-75.0891)">
            <path d="M589.399,391.548C583.631,373.843 585.405,353.858 597.618,338.519L619.928,338.517L589.399,391.548Z" style="fill:rgb(255,108,12);fill-opacity:0.8;"/>
        </g>
        <g transform="matrix(0.176831,-0.984241,0.984241,0.176831,-422.816,624.744)">
            <path d="M589.399,391.548C583.631,373.843 585.405,353.858 597.618,338.519L619.928,338.517L589.399,391.548Z" style="fill:rgb(255,108,12);fill-opacity:0.9;"/>
        </g>
        <g transform="matrix(-0.763782,-0.645475,0.645475,-0.763782,309.157,756.714)">
            <path d="M589.399,391.548C583.631,373.843 585.405,353.858 597.618,338.519L619.928,338.517L589.399,391.548Z" style="fill:rgb(255,108,12);"/>
        </g>
        <g transform="matrix(-0.94075,0.3391,-0.3391,-0.94075,789,189.444)">
            <path d="M589.399,391.548C583.631,373.843 585.405,353.858 597.618,338.519L619.928,338.517L589.399,391.548Z" style="fill:rgb(255,108,12);fill-opacity:0.2;"/>
        </g>
        <g transform="matrix(-0.176722,0.984261,-0.984261,-0.176722,537.933,-510.312)">
            <path d="M589.399,391.548C583.631,373.843 585.405,353.858 597.618,338.519L619.928,338.517L589.399,391.548Z" style="fill:rgb(255,108,12);fill-opacity:0.6;"/>
        </g>
    </g>
</svg>
