<?xml version="1.0" encoding="UTF-8" standalone="no"?><!DOCTYPE svg PUBLIC "-//W3C//DTD SVG 1.1//EN" "http://www.w3.org/Graphics/SVG/1.1/DTD/svg11.dtd"><svg width="100%" height="100%" viewBox="0 0 375 375" version="1.1" xmlns="http://www.w3.org/2000/svg" xmlns:xlink="http://www.w3.org/1999/xlink" xml:space="preserve" xmlns:serif="http://www.serif.com/" style="fill-rule:evenodd;clip-rule:evenodd;stroke-linejoin:round;stroke-miterlimit:2;"><g><path d="M248.125,152.489l24.368,-130.333c-60.89,-31.036 -122.208,-28.885 -177.024,2.809l152.656,127.524Z" style="fill:#ff6c0c;fill-opacity:0.6;"/><path d="M186.768,116.603l-100.688,-86.27c-57.323,37.215 -86.119,91.393 -86.08,154.713l186.768,-68.443Z" style="fill:#ff6c0c;fill-opacity:0.7;"/><path d="M125.982,153.268l-125.055,44.063c3.567,68.251 36.089,120.278 90.945,151.904l34.11,-195.967Z" style="fill:#ff6c0c;fill-opacity:0.8;"/><path d="M126.107,221.894l-24.368,130.333c60.891,31.035 122.208,28.884 177.025,-2.809l-152.657,-127.524Z" style="fill:#ff6c0c;fill-opacity:0.9;"/><path d="M187.597,255.481l100.651,86.313c57.339,-37.19 86.158,-91.356 86.146,-154.675l-186.797,68.362Z" style="fill:#ff6c0c;"/><path d="M247.114,224.218l125.032,-44.128c-3.602,-68.249 -36.151,-120.259 -91.023,-151.856l-34.009,195.984Z" style="fill:#ff6c0c;fill-opacity:0.2;"/></g></svg>