<?xml version="1.0" encoding="UTF-8" standalone="no"?><!DOCTYPE svg PUBLIC "-//W3C//DTD SVG 1.1//EN" "http://www.w3.org/Graphics/SVG/1.1/DTD/svg11.dtd"><svg width="100%" height="100%" viewBox="0 0 977 478" version="1.1" xmlns="http://www.w3.org/2000/svg" xmlns:xlink="http://www.w3.org/1999/xlink" xml:space="preserve" xmlns:serif="http://www.serif.com/" style="fill-rule:evenodd;clip-rule:evenodd;stroke-linejoin:round;stroke-miterlimit:2;"><path d="M16.168,152.853c29.262,-71.857 88.657,-130.689 168.778,-146.657l71.004,59.997l-239.782,86.66Z" style="fill:#ff6c0c;fill-opacity:0.7;"/><path d="M54.064,388.726c-47.633,-61.244 -68.93,-142.086 -42.741,-219.471l87.443,-31.541l-44.702,251.012Z" style="fill:#ff6c0c;fill-opacity:0.8;"/><path d="M278.276,474.46c-76.858,10.609 -157.511,-11.391 -211.418,-72.778l16.431,-91.495l194.987,164.273Z" style="fill:#ff6c0c;fill-opacity:0.9;"/><path d="M465.495,321.727c-29.262,71.857 -88.657,130.688 -168.778,146.657l-71.004,-59.997l239.782,-86.66Z" style="fill:#ff6c0c;"/><path d="M423.952,87.337c47.624,61.251 68.909,142.096 42.709,219.478l-87.448,31.528l44.739,-251.006Z" style="fill:#ff6c0c;fill-opacity:0.1;"/><path d="M201.614,2.564c76.857,-10.617 157.512,11.374 211.426,72.755l-16.421,91.497l-195.005,-164.252Z" style="fill:#ff6c0c;fill-opacity:0.6;"/><path d="M722.059,476.328c-0.369,-0.807 -0.634,-2.169 -0.796,-4.084c-2.169,3.184 -4.937,4.776 -8.306,4.776c-3.392,0 -6.039,-0.951 -7.943,-2.855c-1.904,-1.904 -2.855,-4.586 -2.855,-8.047c-0,-3.807 1.292,-6.829 3.876,-9.068c2.584,-2.238 6.126,-3.38 10.625,-3.426l4.499,0l0,-3.98c0,-2.238 -0.496,-3.83 -1.488,-4.776c-0.992,-0.946 -2.503,-1.419 -4.534,-1.419c-1.845,-0 -3.345,0.548 -4.499,1.644c-1.154,1.096 -1.73,2.486 -1.73,4.17l-6.126,0c-0,-1.915 0.565,-3.743 1.696,-5.485c1.13,-1.742 2.653,-3.11 4.568,-4.102c1.915,-0.992 4.049,-1.488 6.403,-1.488c3.83,0 6.743,0.952 8.739,2.855c1.996,1.904 3.017,4.678 3.063,8.324l-0,18.897c0.023,2.884 0.415,5.388 1.177,7.51l-0,0.554l-6.369,0Zm-8.168,-4.88c1.5,0 2.931,-0.415 4.292,-1.246c1.361,-0.83 2.354,-1.869 2.976,-3.115l0,-8.929l-3.461,-0c-2.907,0.046 -5.203,0.698 -6.887,1.955c-1.684,1.258 -2.526,3.017 -2.526,5.278c-0,2.123 0.426,3.663 1.28,4.621c0.854,0.957 2.296,1.436 4.326,1.436Z" style="fill:#cac8c8;fill-rule:nonzero;"/><path d="M744.763,429.812l0,9.068l5.642,0l-0,4.949l-5.642,0l0,23.224c0,1.476 0.243,2.595 0.727,3.357c0.485,0.761 1.315,1.142 2.492,1.142c0.808,-0 1.627,-0.139 2.457,-0.415l-0.069,5.191c-1.384,0.462 -2.803,0.692 -4.257,0.692c-2.423,0 -4.268,-0.865 -5.537,-2.595c-1.269,-1.731 -1.904,-4.177 -1.904,-7.338l0,-23.258l-5.711,0l0,-4.949l5.711,0l0,-9.068l6.091,0Z" style="fill:#cac8c8;fill-rule:nonzero;"/><path d="M806.369,460.338c-0.277,5.399 -1.794,9.53 -4.551,12.391c-2.758,2.861 -6.651,4.291 -11.681,4.291c-5.053,0 -9.068,-1.921 -12.044,-5.762c-2.977,-3.842 -4.465,-9.051 -4.465,-15.627l-0,-9.137c-0,-6.552 1.529,-11.732 4.586,-15.539c3.057,-3.807 7.227,-5.711 12.511,-5.711c4.869,-0 8.635,1.459 11.3,4.378c2.665,2.919 4.113,7.089 4.344,12.512l-6.403,-0c-0.277,-4.107 -1.142,-7.038 -2.596,-8.791c-1.453,-1.754 -3.668,-2.631 -6.645,-2.631c-3.438,0 -6.08,1.344 -7.925,4.032c-1.846,2.688 -2.769,6.628 -2.769,11.82l-0,9.24c-0,5.1 0.859,9.011 2.578,11.733c1.719,2.723 4.228,4.084 7.528,4.084c3.299,0 5.676,-0.819 7.129,-2.457c1.454,-1.638 2.354,-4.58 2.7,-8.826l6.403,0Z" style="fill:#cac8c8;fill-rule:nonzero;"/><path d="M833.365,476.328c-0.37,-0.807 -0.635,-2.169 -0.796,-4.084c-2.169,3.184 -4.938,4.776 -8.307,4.776c-3.392,0 -6.039,-0.951 -7.943,-2.855c-1.903,-1.904 -2.855,-4.586 -2.855,-8.047c-0,-3.807 1.292,-6.829 3.876,-9.068c2.584,-2.238 6.126,-3.38 10.625,-3.426l4.5,0l-0,-3.98c-0,-2.238 -0.496,-3.83 -1.489,-4.776c-0.992,-0.946 -2.503,-1.419 -4.533,-1.419c-1.846,-0 -3.346,0.548 -4.5,1.644c-1.153,1.096 -1.73,2.486 -1.73,4.17l-6.126,0c-0,-1.915 0.565,-3.743 1.696,-5.485c1.13,-1.742 2.653,-3.11 4.568,-4.102c1.915,-0.992 4.05,-1.488 6.403,-1.488c3.83,0 6.743,0.952 8.739,2.855c1.996,1.904 3.017,4.678 3.063,8.324l0,18.897c0.023,2.884 0.415,5.388 1.177,7.51l-0,0.554l-6.368,0Zm-8.168,-4.88c1.499,0 2.93,-0.415 4.291,-1.246c1.362,-0.83 2.354,-1.869 2.977,-3.115l-0,-8.929l-3.461,-0c-2.908,0.046 -5.203,0.698 -6.888,1.955c-1.684,1.258 -2.526,3.017 -2.526,5.278c-0,2.123 0.427,3.663 1.28,4.621c0.854,0.957 2.296,1.436 4.327,1.436Z" style="fill:#cac8c8;fill-rule:nonzero;"/><rect x="848.524" y="423.167" width="6.126" height="53.161" style="fill:#cac8c8;fill-rule:nonzero;"/><path d="M872.301,429.812l-0,9.068l5.641,0l0,4.949l-5.641,0l-0,23.224c-0,1.476 0.242,2.595 0.726,3.357c0.485,0.761 1.316,1.142 2.492,1.142c0.808,-0 1.627,-0.139 2.458,-0.415l-0.07,5.191c-1.384,0.462 -2.803,0.692 -4.257,0.692c-2.422,0 -4.268,-0.865 -5.537,-2.595c-1.269,-1.731 -1.904,-4.177 -1.904,-7.338l0,-23.258l-5.71,0l-0,-4.949l5.71,0l0,-9.068l6.092,0Z" style="fill:#cac8c8;fill-rule:nonzero;"/><path d="M898.604,477.02c-4.661,0 -8.237,-1.39 -10.729,-4.17c-2.492,-2.781 -3.761,-6.859 -3.807,-12.235l-0,-4.534c-0,-5.583 1.217,-9.962 3.651,-13.134c2.435,-3.173 5.832,-4.759 10.193,-4.759c4.384,0 7.66,1.396 9.829,4.188c2.169,2.792 3.276,7.141 3.323,13.048l-0,4.014l-20.905,0l0,0.866c0,4.014 0.756,6.933 2.267,8.756c1.512,1.823 3.686,2.734 6.524,2.734c1.8,0 3.386,-0.34 4.759,-1.021c1.373,-0.68 2.659,-1.759 3.859,-3.236l3.184,3.876c-2.653,3.738 -6.703,5.607 -12.148,5.607Zm-0.692,-33.571c-2.538,-0 -4.419,0.871 -5.642,2.613c-1.222,1.742 -1.915,4.447 -2.076,8.116l14.744,-0l-0,-0.831c-0.162,-3.553 -0.802,-6.091 -1.921,-7.614c-1.119,-1.523 -2.821,-2.284 -5.105,-2.284Z" style="fill:#cac8c8;fill-rule:nonzero;"/><path d="M931.414,471.794c2.031,0 3.657,-0.629 4.88,-1.886c1.223,-1.258 1.892,-3.051 2.008,-5.382l5.779,0c-0.138,3.6 -1.413,6.582 -3.824,8.947c-2.411,2.365 -5.359,3.547 -8.843,3.547c-4.638,0 -8.173,-1.459 -10.608,-4.378c-2.434,-2.919 -3.651,-7.262 -3.651,-13.03l-0,-4.119c-0,-5.653 1.211,-9.95 3.634,-12.892c2.423,-2.942 5.953,-4.413 10.591,-4.413c3.83,0 6.87,1.211 9.119,3.634c2.25,2.423 3.444,5.734 3.582,9.933l-5.779,0c-0.139,-2.769 -0.802,-4.845 -1.991,-6.23c-1.188,-1.384 -2.832,-2.076 -4.931,-2.076c-2.723,-0 -4.742,0.894 -6.057,2.682c-1.315,1.788 -1.996,4.724 -2.042,8.808l-0,4.776c-0,4.407 0.652,7.522 1.955,9.345c1.304,1.823 3.363,2.734 6.178,2.734Z" style="fill:#cac8c8;fill-rule:nonzero;"/><path d="M957.268,442.722c2.33,-3.023 5.307,-4.534 8.929,-4.534c6.622,0 9.979,4.419 10.072,13.256l-0,24.884l-6.092,0l0,-24.608c0,-2.93 -0.49,-5.012 -1.471,-6.247c-0.98,-1.234 -2.451,-1.851 -4.412,-1.851c-1.523,-0 -2.89,0.507 -4.102,1.523c-1.211,1.015 -2.186,2.342 -2.924,3.98l-0,27.203l-6.126,0l-0,-53.161l6.126,0l-0,19.555Z" style="fill:#cac8c8;fill-rule:nonzero;"/><path d="M219.372,256.213c-0,11.922 -2.818,21.179 -8.454,27.771c-5.635,6.592 -13.458,9.888 -23.468,9.888c-9.969,-0 -17.802,-3.265 -23.498,-9.796c-5.697,-6.531 -8.586,-15.676 -8.667,-27.436l-0,-15.197c-0,-12.207 2.828,-21.739 8.484,-28.595c5.655,-6.857 13.509,-10.285 23.559,-10.285c9.888,0 17.68,3.367 23.377,10.102c5.696,6.734 8.585,16.184 8.667,28.35l-0,15.198Zm-18.006,-14.892c0,-8.016 -1.139,-13.977 -3.418,-17.884c-2.278,-3.906 -5.818,-5.859 -10.62,-5.859c-4.761,-0 -8.28,1.882 -10.559,5.646c-2.279,3.764 -3.459,9.491 -3.54,17.181l-0,15.808c-0,7.772 1.16,13.499 3.479,17.182c2.319,3.682 5.9,5.523 10.742,5.523c4.68,0 8.159,-1.8 10.437,-5.401c2.279,-3.601 3.439,-9.186 3.479,-16.754l0,-15.442Z" style="fill:#76777b;fill-rule:nonzero;"/><path d="M255.687,203.784l16.785,64.27l16.724,-64.27l23.437,0l0,88.867l-18.005,0l-0,-24.048l1.648,-37.048l-17.761,61.096l-12.207,0l-17.762,-61.096l1.648,37.048l0,24.048l-17.944,0l-0,-88.867l23.437,0Z" style="fill:#76777b;fill-rule:nonzero;"/><path d="M344.982,261.401l-0,31.25l-17.944,0l-0,-88.867l30.273,0c8.789,0 15.798,2.726 21.027,8.179c5.228,5.452 7.843,12.532 7.843,21.24c-0,8.708 -2.584,15.584 -7.752,20.63c-5.167,5.045 -12.329,7.568 -21.484,7.568l-11.963,0Zm-0,-14.953l12.329,-0c3.418,-0 6.063,-1.119 7.935,-3.357c1.871,-2.238 2.807,-5.493 2.807,-9.766c0,-4.435 -0.956,-7.965 -2.868,-10.59c-1.913,-2.624 -4.476,-3.957 -7.691,-3.997l-12.512,-0l-0,27.71Z" style="fill:#76777b;fill-rule:nonzero;"/><path d="M455.944,203.784l-0,61.523c-0.082,9.237 -2.625,16.307 -7.63,21.21c-5.004,4.903 -12.186,7.355 -21.545,7.355c-9.521,-0 -16.795,-2.482 -21.82,-7.446c-5.025,-4.965 -7.538,-12.146 -7.538,-21.546l0,-61.096l18.067,0l-0,61.157c-0,5.046 0.813,8.647 2.441,10.803c1.628,2.157 4.578,3.235 8.85,3.235c4.272,0 7.202,-1.068 8.789,-3.204c1.587,-2.136 2.401,-5.646 2.442,-10.529l-0,-61.462l17.944,0Z" style="fill:#76777b;fill-rule:nonzero;"/><path d="M527.111,218.738l-21.973,-0l0,73.913l-18.005,0l-0,-73.913l-21.607,-0l0,-14.954l61.585,0l-0,14.954Z" style="fill:#76777b;fill-rule:nonzero;"/><path d="M572.521,274.463l-24.475,-0l-4.761,18.188l-18.982,0l27.771,-88.867l16.419,0l27.954,88.867l-19.165,0l-4.761,-18.188Zm-20.569,-14.954l16.602,0l-8.301,-31.677l-8.301,31.677Z" style="fill:#76777b;fill-rule:nonzero;"/><path d="M654.979,218.738l-21.972,-0l-0,73.913l-18.006,0l0,-73.913l-21.606,-0l0,-14.954l61.584,0l0,14.954Z" style="fill:#76777b;fill-rule:nonzero;"/><rect x="666.088" y="203.784" width="17.944" height="88.867" style="fill:#76777b;fill-rule:nonzero;"/><path d="M761.669,256.213c-0,11.922 -2.818,21.179 -8.453,27.771c-5.636,6.592 -13.459,9.888 -23.468,9.888c-9.97,-0 -17.802,-3.265 -23.499,-9.796c-5.697,-6.531 -8.586,-15.676 -8.667,-27.436l0,-15.197c0,-12.207 2.828,-21.739 8.484,-28.595c5.656,-6.857 13.509,-10.285 23.559,-10.285c9.888,0 17.68,3.367 23.377,10.102c5.697,6.734 8.586,16.184 8.667,28.35l-0,15.198Zm-18.005,-14.892c-0,-8.016 -1.14,-13.977 -3.418,-17.884c-2.279,-3.906 -5.819,-5.859 -10.621,-5.859c-4.76,-0 -8.28,1.882 -10.559,5.646c-2.278,3.764 -3.458,9.491 -3.54,17.181l0,15.808c0,7.772 1.16,13.499 3.479,17.182c2.32,3.682 5.9,5.523 10.743,5.523c4.679,0 8.158,-1.8 10.437,-5.401c2.278,-3.601 3.438,-9.186 3.479,-16.754l-0,-15.442Z" style="fill:#76777b;fill-rule:nonzero;"/><path d="M836.681,292.651l-17.944,0l-26.245,-58.288l-0,58.288l-17.945,0l0,-88.867l17.945,0l26.306,58.35l-0,-58.35l17.883,0l0,88.867Z" style="fill:#76777b;fill-rule:nonzero;"/><path d="M894.604,274.463l-24.476,-0l-4.76,18.188l-18.982,0l27.771,-88.867l16.418,0l27.954,88.867l-19.165,0l-4.76,-18.188Zm-20.569,-14.954l16.601,0l-8.301,-31.677l-8.3,31.677Z" style="fill:#76777b;fill-rule:nonzero;"/><path d="M944.774,277.759l31.495,-0l-0,14.892l-49.439,0l0,-88.867l17.944,0l0,73.975Z" style="fill:#76777b;fill-rule:nonzero;"/><path d="M534.923,375.797c-0.447,10.132 -3.296,17.802 -8.545,23.011c-5.249,5.208 -12.654,7.812 -22.216,7.812c-10.051,0 -17.751,-3.306 -23.102,-9.918c-5.351,-6.612 -8.026,-16.042 -8.026,-28.29l-0,-14.953c-0,-12.207 2.767,-21.617 8.3,-28.229c5.534,-6.612 13.225,-9.918 23.072,-9.918c9.684,-0 17.039,2.705 22.064,8.117c5.025,5.412 7.884,13.184 8.575,23.316l-18.005,-0c-0.163,-6.267 -1.129,-10.59 -2.899,-12.97c-1.77,-2.381 -5.015,-3.571 -9.735,-3.571c-4.802,0 -8.199,1.679 -10.193,5.036c-1.994,3.356 -3.052,8.88 -3.174,16.571l0,16.784c0,8.83 0.987,14.893 2.96,18.189c1.974,3.296 5.361,4.944 10.163,4.944c4.72,-0 7.975,-1.15 9.765,-3.449c1.791,-2.299 2.808,-6.459 3.052,-12.482l17.944,0Z" style="fill:#76777b;fill-rule:nonzero;"/><path d="M588.39,387.211l-24.475,-0l-4.761,18.188l-18.982,0l27.771,-88.867l16.419,0l27.954,88.867l-19.165,0l-4.761,-18.188Zm-20.569,-14.954l16.602,0l-8.301,-31.677l-8.301,31.677Z" style="fill:#76777b;fill-rule:nonzero;"/><path d="M644.054,316.532l16.785,64.27l16.723,-64.27l23.438,0l-0,88.867l-18.005,0l-0,-24.047l1.648,-37.049l-17.762,61.096l-12.207,0l-17.761,-61.096l1.648,37.049l0,24.047l-17.944,0l-0,-88.867l23.437,0Z" style="fill:#76777b;fill-rule:nonzero;"/><path d="M761.303,366.947l-27.954,0l-0,23.56l33.081,-0l-0,14.892l-51.026,0l0,-88.867l50.904,0l-0,14.954l-32.959,-0l-0,20.996l27.954,-0l-0,14.465Z" style="fill:#76777b;fill-rule:nonzero;"/><path d="M803.661,372.929l-8.911,-0l-0,32.47l-17.944,0l-0,-88.867l28.625,0c8.993,0 15.94,2.33 20.844,6.989c4.903,4.659 7.354,11.281 7.354,19.867c0,11.8 -4.292,20.06 -12.878,24.78l15.564,36.377l-0,0.854l-19.287,0l-13.367,-32.47Zm-8.911,-14.954l10.193,0c3.581,0 6.266,-1.19 8.057,-3.57c1.79,-2.381 2.685,-5.565 2.685,-9.552c0,-8.912 -3.479,-13.367 -10.437,-13.367l-10.498,-0l-0,26.489Z" style="fill:#76777b;fill-rule:nonzero;"/><path d="M888.378,387.211l-24.475,-0l-4.761,18.188l-18.982,0l27.771,-88.867l16.419,0l27.954,88.867l-19.165,0l-4.761,-18.188Zm-20.569,-14.954l16.602,0l-8.301,-31.677l-8.301,31.677Z" style="fill:#76777b;fill-rule:nonzero;"/><path d="M958.141,382.084c0,-3.621 -0.926,-6.358 -2.777,-8.209c-1.851,-1.852 -5.219,-3.774 -10.101,-5.768c-8.911,-3.377 -15.32,-7.334 -19.226,-11.871c-3.907,-4.537 -5.86,-9.898 -5.86,-16.083c0,-7.487 2.655,-13.499 7.965,-18.036c5.31,-4.537 12.055,-6.805 20.233,-6.805c5.453,-0 10.315,1.149 14.588,3.448c4.272,2.299 7.558,5.544 9.857,9.735c2.299,4.191 3.449,8.952 3.449,14.282l-17.884,0c0,-4.15 -0.885,-7.314 -2.655,-9.491c-1.77,-2.176 -4.323,-3.265 -7.66,-3.265c-3.133,0 -5.574,0.926 -7.324,2.777c-1.75,1.852 -2.624,4.344 -2.624,7.477c-0,2.441 0.976,4.649 2.929,6.622c1.953,1.974 5.412,4.018 10.376,6.134c8.667,3.133 14.964,6.979 18.891,11.536c3.926,4.557 5.89,10.356 5.89,17.395c-0,7.731 -2.462,13.774 -7.386,18.127c-4.923,4.354 -11.617,6.531 -20.08,6.531c-5.738,0 -10.966,-1.18 -15.686,-3.54c-4.72,-2.36 -8.413,-5.737 -11.078,-10.132c-2.665,-4.394 -3.998,-9.582 -3.998,-15.564l18.005,0c0,5.127 0.997,8.85 2.991,11.17c1.994,2.319 5.249,3.479 9.766,3.479c6.266,-0 9.399,-3.316 9.399,-9.949Z" style="fill:#76777b;fill-rule:nonzero;"/></svg>