<?xml version="1.0" encoding="UTF-8" standalone="no"?>
<!DOCTYPE svg PUBLIC "-//W3C//DTD SVG 1.1//EN" "http://www.w3.org/Graphics/SVG/1.1/DTD/svg11.dtd">
<svg width="100%" height="100%" viewBox="0 0 977 478" version="1.1" xmlns="http://www.w3.org/2000/svg" xmlns:xlink="http://www.w3.org/1999/xlink" xml:space="preserve" xmlns:serif="http://www.serif.com/" style="fill-rule:evenodd;clip-rule:evenodd;stroke-linejoin:round;stroke-miterlimit:2;">
    <g transform="matrix(4.16667,0,0,4.16667,0,0)">
        <g transform="matrix(0.763782,0.645475,-0.645475,0.763782,-193.558,-642.815)">
            <path d="M589.399,391.548C583.631,373.843 585.405,353.858 597.618,338.519L619.928,338.517L589.399,391.548Z" style="fill:rgb(255,108,12);fill-opacity:0.7;"/>
        </g>
        <g transform="matrix(0.940701,-0.339238,0.339238,0.940701,-674.301,-75.0891)">
            <path d="M589.399,391.548C583.631,373.843 585.405,353.858 597.618,338.519L619.928,338.517L589.399,391.548Z" style="fill:rgb(255,108,12);fill-opacity:0.8;"/>
        </g>
        <g transform="matrix(0.176831,-0.984241,0.984241,0.176831,-422.816,624.744)">
            <path d="M589.399,391.548C583.631,373.843 585.405,353.858 597.618,338.519L619.928,338.517L589.399,391.548Z" style="fill:rgb(255,108,12);fill-opacity:0.9;"/>
        </g>
        <g transform="matrix(-0.763782,-0.645475,0.645475,-0.763782,309.157,756.714)">
            <path d="M589.399,391.548C583.631,373.843 585.405,353.858 597.618,338.519L619.928,338.517L589.399,391.548Z" style="fill:rgb(255,108,12);"/>
        </g>
        <g transform="matrix(-0.94075,0.3391,-0.3391,-0.94075,789,189.444)">
            <path d="M589.399,391.548C583.631,373.843 585.405,353.858 597.618,338.519L619.928,338.517L589.399,391.548Z" style="fill:rgb(255,108,12);fill-opacity:0.2;"/>
        </g>
        <g transform="matrix(-0.176722,0.984261,-0.984261,-0.176722,537.933,-510.312)">
            <path d="M589.399,391.548C583.631,373.843 585.405,353.858 597.618,338.519L619.928,338.517L589.399,391.548Z" style="fill:rgb(255,108,12);fill-opacity:0.6;"/>
        </g>
        <g transform="matrix(0.810068,0,0,0.810068,35.2686,-49.4624)">
            <g transform="matrix(21,0,0,21,163.323,202.182)">
                <path d="M0.336,-0C0.331,-0.011 0.327,-0.031 0.325,-0.058C0.295,-0.013 0.256,0.01 0.208,0.01C0.16,0.01 0.123,-0.004 0.096,-0.031C0.069,-0.057 0.056,-0.095 0.056,-0.144C0.056,-0.198 0.074,-0.24 0.11,-0.272C0.147,-0.304 0.197,-0.32 0.26,-0.32L0.324,-0.32L0.324,-0.376C0.324,-0.408 0.317,-0.431 0.303,-0.444C0.289,-0.457 0.267,-0.464 0.239,-0.464C0.213,-0.464 0.192,-0.456 0.175,-0.441C0.159,-0.425 0.151,-0.406 0.151,-0.382L0.064,-0.382C0.064,-0.409 0.072,-0.435 0.088,-0.459C0.104,-0.484 0.126,-0.503 0.153,-0.517C0.18,-0.531 0.21,-0.538 0.243,-0.538C0.297,-0.538 0.338,-0.525 0.366,-0.498C0.395,-0.471 0.409,-0.432 0.41,-0.38L0.41,-0.114C0.41,-0.073 0.416,-0.038 0.426,-0.008L0.426,-0L0.336,-0ZM0.221,-0.069C0.242,-0.069 0.263,-0.075 0.282,-0.086C0.301,-0.098 0.315,-0.113 0.324,-0.13L0.324,-0.256L0.275,-0.256C0.234,-0.256 0.201,-0.247 0.178,-0.229C0.154,-0.211 0.142,-0.186 0.142,-0.154C0.142,-0.124 0.148,-0.103 0.16,-0.089C0.172,-0.076 0.193,-0.069 0.221,-0.069Z" style="fill:rgb(202,200,200);fill-rule:nonzero;"/>
            </g>
            <g transform="matrix(21,0,0,21,173.382,202.182)">
                <path d="M0.178,-0.656L0.178,-0.528L0.257,-0.528L0.257,-0.458L0.178,-0.458L0.178,-0.131C0.178,-0.11 0.181,-0.094 0.188,-0.083C0.195,-0.073 0.207,-0.067 0.223,-0.067C0.235,-0.067 0.246,-0.069 0.258,-0.073L0.257,-0C0.237,0.007 0.217,0.01 0.197,0.01C0.163,0.01 0.137,-0.002 0.119,-0.027C0.101,-0.051 0.092,-0.086 0.092,-0.13L0.092,-0.458L0.011,-0.458L0.011,-0.528L0.092,-0.528L0.092,-0.656L0.178,-0.656Z" style="fill:rgb(202,200,200);fill-rule:nonzero;"/>
            </g>
            <g transform="matrix(21,0,0,21,184.395,202.182)">
                <path d="M0.522,-0.226C0.519,-0.149 0.497,-0.091 0.458,-0.051C0.419,-0.01 0.364,0.01 0.293,0.01C0.222,0.01 0.166,-0.017 0.124,-0.072C0.082,-0.126 0.061,-0.199 0.061,-0.292L0.061,-0.421C0.061,-0.513 0.082,-0.586 0.125,-0.64C0.168,-0.694 0.227,-0.721 0.302,-0.721C0.37,-0.721 0.424,-0.7 0.461,-0.659C0.499,-0.618 0.519,-0.559 0.522,-0.482L0.432,-0.482C0.428,-0.54 0.416,-0.582 0.396,-0.606C0.375,-0.631 0.344,-0.644 0.302,-0.644C0.253,-0.644 0.216,-0.625 0.19,-0.587C0.164,-0.549 0.151,-0.493 0.151,-0.42L0.151,-0.29C0.151,-0.218 0.163,-0.162 0.187,-0.124C0.212,-0.086 0.247,-0.066 0.293,-0.066C0.34,-0.066 0.374,-0.078 0.394,-0.101C0.415,-0.124 0.427,-0.166 0.432,-0.226L0.522,-0.226Z" style="fill:rgb(202,200,200);fill-rule:nonzero;"/>
            </g>
            <g transform="matrix(21,0,0,21,196.299,202.182)">
                <path d="M0.336,-0C0.331,-0.011 0.327,-0.031 0.325,-0.058C0.295,-0.013 0.256,0.01 0.208,0.01C0.16,0.01 0.123,-0.004 0.096,-0.031C0.069,-0.057 0.056,-0.095 0.056,-0.144C0.056,-0.198 0.074,-0.24 0.11,-0.272C0.147,-0.304 0.197,-0.32 0.26,-0.32L0.324,-0.32L0.324,-0.376C0.324,-0.408 0.317,-0.431 0.303,-0.444C0.289,-0.457 0.267,-0.464 0.239,-0.464C0.213,-0.464 0.192,-0.456 0.175,-0.441C0.159,-0.425 0.151,-0.406 0.151,-0.382L0.064,-0.382C0.064,-0.409 0.072,-0.435 0.088,-0.459C0.104,-0.484 0.126,-0.503 0.153,-0.517C0.18,-0.531 0.21,-0.538 0.243,-0.538C0.297,-0.538 0.338,-0.525 0.366,-0.498C0.395,-0.471 0.409,-0.432 0.41,-0.38L0.41,-0.114C0.41,-0.073 0.416,-0.038 0.426,-0.008L0.426,-0L0.336,-0ZM0.221,-0.069C0.242,-0.069 0.263,-0.075 0.282,-0.086C0.301,-0.098 0.315,-0.113 0.324,-0.13L0.324,-0.256L0.275,-0.256C0.234,-0.256 0.201,-0.247 0.178,-0.229C0.154,-0.211 0.142,-0.186 0.142,-0.154C0.142,-0.124 0.148,-0.103 0.16,-0.089C0.172,-0.076 0.193,-0.069 0.221,-0.069Z" style="fill:rgb(202,200,200);fill-rule:nonzero;"/>
            </g>
            <g transform="matrix(21,0,0,21,206.359,202.182)">
                <rect x="0.071" y="-0.75" width="0.086" height="0.75" style="fill:rgb(202,200,200);fill-rule:nonzero;"/>
            </g>
            <g transform="matrix(21,0,0,21,211.168,202.182)">
                <path d="M0.178,-0.656L0.178,-0.528L0.257,-0.528L0.257,-0.458L0.178,-0.458L0.178,-0.131C0.178,-0.11 0.181,-0.094 0.188,-0.083C0.195,-0.073 0.207,-0.067 0.223,-0.067C0.235,-0.067 0.246,-0.069 0.258,-0.073L0.257,-0C0.237,0.007 0.217,0.01 0.197,0.01C0.163,0.01 0.137,-0.002 0.119,-0.027C0.101,-0.051 0.092,-0.086 0.092,-0.13L0.092,-0.458L0.011,-0.458L0.011,-0.528L0.092,-0.528L0.092,-0.656L0.178,-0.656Z" style="fill:rgb(202,200,200);fill-rule:nonzero;"/>
            </g>
            <g transform="matrix(21,0,0,21,217.371,202.182)">
                <path d="M0.253,0.01C0.188,0.01 0.137,-0.01 0.102,-0.049C0.067,-0.088 0.049,-0.146 0.048,-0.222L0.048,-0.286C0.048,-0.364 0.066,-0.426 0.1,-0.471C0.134,-0.516 0.182,-0.538 0.244,-0.538C0.306,-0.538 0.352,-0.518 0.382,-0.479C0.413,-0.44 0.429,-0.378 0.429,-0.295L0.429,-0.238L0.134,-0.238L0.134,-0.226C0.134,-0.169 0.145,-0.128 0.166,-0.103C0.188,-0.077 0.218,-0.064 0.258,-0.064C0.284,-0.064 0.306,-0.069 0.325,-0.078C0.345,-0.088 0.363,-0.103 0.38,-0.124L0.425,-0.069C0.387,-0.017 0.33,0.01 0.253,0.01ZM0.244,-0.464C0.208,-0.464 0.181,-0.452 0.164,-0.427C0.147,-0.402 0.137,-0.364 0.135,-0.313L0.343,-0.313L0.343,-0.324C0.34,-0.374 0.331,-0.41 0.316,-0.432C0.3,-0.453 0.276,-0.464 0.244,-0.464Z" style="fill:rgb(202,200,200);fill-rule:nonzero;"/>
            </g>
            <g transform="matrix(21,0,0,21,227.205,202.182)">
                <path d="M0.248,-0.064C0.277,-0.064 0.3,-0.073 0.317,-0.091C0.334,-0.108 0.344,-0.134 0.345,-0.167L0.427,-0.167C0.425,-0.116 0.407,-0.074 0.373,-0.04C0.339,-0.007 0.297,0.01 0.248,0.01C0.183,0.01 0.133,-0.011 0.098,-0.052C0.064,-0.093 0.047,-0.154 0.047,-0.236L0.047,-0.294C0.047,-0.374 0.064,-0.434 0.098,-0.476C0.132,-0.517 0.182,-0.538 0.248,-0.538C0.302,-0.538 0.344,-0.521 0.376,-0.487C0.408,-0.453 0.425,-0.406 0.427,-0.347L0.345,-0.347C0.343,-0.386 0.334,-0.415 0.317,-0.435C0.3,-0.454 0.277,-0.464 0.248,-0.464C0.209,-0.464 0.181,-0.451 0.162,-0.426C0.144,-0.401 0.134,-0.359 0.133,-0.302L0.133,-0.234C0.133,-0.172 0.142,-0.128 0.161,-0.103C0.179,-0.077 0.208,-0.064 0.248,-0.064Z" style="fill:rgb(202,200,200);fill-rule:nonzero;"/>
            </g>
            <g transform="matrix(21,0,0,21,236.905,202.182)">
                <path d="M0.151,-0.474C0.184,-0.517 0.226,-0.538 0.277,-0.538C0.37,-0.538 0.418,-0.476 0.419,-0.351L0.419,-0L0.333,-0L0.333,-0.347C0.333,-0.389 0.326,-0.418 0.312,-0.435C0.298,-0.453 0.278,-0.461 0.25,-0.461C0.229,-0.461 0.209,-0.454 0.192,-0.44C0.175,-0.426 0.161,-0.407 0.151,-0.384L0.151,-0L0.064,-0L0.064,-0.75L0.151,-0.75L0.151,-0.474Z" style="fill:rgb(202,200,200);fill-rule:nonzero;"/>
            </g>
        </g>
        <g transform="matrix(1,0,0,1,35.9207,70.2363)">
            <g transform="matrix(30,0,0,30,0,0)">
                <path d="M0.558,-0.292C0.558,-0.196 0.535,-0.122 0.49,-0.069C0.445,-0.017 0.382,0.01 0.302,0.01C0.222,0.01 0.16,-0.016 0.114,-0.069C0.069,-0.121 0.046,-0.194 0.045,-0.288L0.045,-0.41C0.045,-0.507 0.068,-0.584 0.113,-0.638C0.158,-0.693 0.221,-0.721 0.301,-0.721C0.38,-0.721 0.443,-0.694 0.488,-0.64C0.534,-0.586 0.557,-0.51 0.558,-0.413L0.558,-0.292ZM0.414,-0.411C0.414,-0.475 0.404,-0.522 0.386,-0.554C0.368,-0.585 0.34,-0.601 0.301,-0.601C0.263,-0.601 0.235,-0.586 0.217,-0.555C0.199,-0.525 0.189,-0.479 0.188,-0.418L0.188,-0.292C0.188,-0.229 0.198,-0.184 0.216,-0.154C0.235,-0.125 0.264,-0.11 0.302,-0.11C0.34,-0.11 0.368,-0.124 0.386,-0.153C0.404,-0.182 0.413,-0.227 0.414,-0.287L0.414,-0.411Z" style="fill:rgb(118,119,123);fill-rule:nonzero;"/>
            </g>
            <g transform="matrix(30,0,0,30,18.1055,0)">
                <path d="M0.245,-0.711L0.379,-0.197L0.513,-0.711L0.7,-0.711L0.7,-0L0.556,-0L0.556,-0.192L0.569,-0.489L0.427,-0L0.33,-0L0.188,-0.489L0.201,-0.192L0.201,-0L0.057,-0L0.057,-0.711L0.245,-0.711Z" style="fill:rgb(118,119,123);fill-rule:nonzero;"/>
            </g>
            <g transform="matrix(30,0,0,30,40.8545,0)">
                <path d="M0.201,-0.25L0.201,-0L0.057,-0L0.057,-0.711L0.299,-0.711C0.37,-0.711 0.426,-0.689 0.468,-0.646C0.509,-0.602 0.53,-0.545 0.53,-0.476C0.53,-0.406 0.51,-0.351 0.468,-0.311C0.427,-0.27 0.37,-0.25 0.296,-0.25L0.201,-0.25ZM0.201,-0.37L0.299,-0.37C0.327,-0.37 0.348,-0.379 0.363,-0.396C0.378,-0.414 0.385,-0.44 0.385,-0.475C0.385,-0.51 0.378,-0.538 0.362,-0.559C0.347,-0.58 0.326,-0.591 0.301,-0.591L0.201,-0.591L0.201,-0.37Z" style="fill:rgb(118,119,123);fill-rule:nonzero;"/>
            </g>
            <g transform="matrix(30,0,0,30,57.9199,0)">
                <path d="M0.52,-0.711L0.52,-0.219C0.519,-0.145 0.499,-0.088 0.458,-0.049C0.418,-0.01 0.361,0.01 0.286,0.01C0.21,0.01 0.152,-0.01 0.112,-0.05C0.071,-0.09 0.051,-0.147 0.051,-0.222L0.051,-0.711L0.196,-0.711L0.196,-0.222C0.196,-0.181 0.202,-0.153 0.215,-0.135C0.228,-0.118 0.252,-0.109 0.286,-0.109C0.32,-0.109 0.344,-0.118 0.356,-0.135C0.369,-0.152 0.376,-0.18 0.376,-0.219L0.376,-0.711L0.52,-0.711Z" style="fill:rgb(118,119,123);fill-rule:nonzero;"/>
            </g>
            <g transform="matrix(30,0,0,30,75.0586,0)">
                <path d="M0.518,-0.591L0.342,-0.591L0.342,-0L0.198,-0L0.198,-0.591L0.025,-0.591L0.025,-0.711L0.518,-0.711L0.518,-0.591Z" style="fill:rgb(118,119,123);fill-rule:nonzero;"/>
            </g>
            <g transform="matrix(30,0,0,30,89.5898,0)">
                <path d="M0.396,-0.146L0.201,-0.146L0.163,-0L0.011,-0L0.233,-0.711L0.364,-0.711L0.588,-0L0.435,-0L0.396,-0.146ZM0.232,-0.265L0.365,-0.265L0.298,-0.519L0.232,-0.265Z" style="fill:rgb(118,119,123);fill-rule:nonzero;"/>
            </g>
            <g transform="matrix(30,0,0,30,105.747,0)">
                <path d="M0.518,-0.591L0.342,-0.591L0.342,-0L0.198,-0L0.198,-0.591L0.025,-0.591L0.025,-0.711L0.518,-0.711L0.518,-0.591Z" style="fill:rgb(118,119,123);fill-rule:nonzero;"/>
            </g>
            <g transform="matrix(30,0,0,30,122.036,0)">
                <rect x="0.063" y="-0.711" width="0.144" height="0.711" style="fill:rgb(118,119,123);fill-rule:nonzero;"/>
            </g>
            <g transform="matrix(30,0,0,30,130.151,0)">
                <path d="M0.558,-0.292C0.558,-0.196 0.535,-0.122 0.49,-0.069C0.445,-0.017 0.382,0.01 0.302,0.01C0.222,0.01 0.16,-0.016 0.114,-0.069C0.069,-0.121 0.046,-0.194 0.045,-0.288L0.045,-0.41C0.045,-0.507 0.068,-0.584 0.113,-0.638C0.158,-0.693 0.221,-0.721 0.301,-0.721C0.38,-0.721 0.443,-0.694 0.488,-0.64C0.534,-0.586 0.557,-0.51 0.558,-0.413L0.558,-0.292ZM0.414,-0.411C0.414,-0.475 0.404,-0.522 0.386,-0.554C0.368,-0.585 0.34,-0.601 0.301,-0.601C0.263,-0.601 0.235,-0.586 0.217,-0.555C0.199,-0.525 0.189,-0.479 0.188,-0.418L0.188,-0.292C0.188,-0.229 0.198,-0.184 0.216,-0.154C0.235,-0.125 0.264,-0.11 0.302,-0.11C0.34,-0.11 0.368,-0.124 0.386,-0.153C0.404,-0.182 0.413,-0.227 0.414,-0.287L0.414,-0.411Z" style="fill:rgb(118,119,123);fill-rule:nonzero;"/>
            </g>
            <g transform="matrix(30,0,0,30,148.257,0)">
                <path d="M0.554,-0L0.411,-0L0.201,-0.466L0.201,-0L0.057,-0L0.057,-0.711L0.201,-0.711L0.411,-0.244L0.411,-0.711L0.554,-0.711L0.554,-0Z" style="fill:rgb(118,119,123);fill-rule:nonzero;"/>
            </g>
            <g transform="matrix(30,0,0,30,166.89,0)">
                <path d="M0.396,-0.146L0.201,-0.146L0.163,-0L0.011,-0L0.233,-0.711L0.364,-0.711L0.588,-0L0.435,-0L0.396,-0.146ZM0.232,-0.265L0.365,-0.265L0.298,-0.519L0.232,-0.265Z" style="fill:rgb(118,119,123);fill-rule:nonzero;"/>
            </g>
            <g transform="matrix(30,0,0,30,184.805,0)">
                <path d="M0.201,-0.119L0.453,-0.119L0.453,-0L0.057,-0L0.057,-0.711L0.201,-0.711L0.201,-0.119Z" style="fill:rgb(118,119,123);fill-rule:nonzero;"/>
            </g>
        </g>
        <g transform="matrix(1,0,0,1,112.21,97.2959)">
            <g transform="matrix(30,0,0,30,0,0)">
                <path d="M0.539,-0.237C0.535,-0.156 0.513,-0.094 0.471,-0.053C0.429,-0.011 0.369,0.01 0.293,0.01C0.213,0.01 0.151,-0.017 0.108,-0.07C0.065,-0.122 0.044,-0.198 0.044,-0.296L0.044,-0.416C0.044,-0.513 0.066,-0.588 0.11,-0.641C0.155,-0.694 0.216,-0.721 0.295,-0.721C0.372,-0.721 0.431,-0.699 0.471,-0.656C0.512,-0.612 0.535,-0.55 0.54,-0.469L0.396,-0.469C0.395,-0.519 0.387,-0.554 0.373,-0.573C0.359,-0.592 0.333,-0.602 0.295,-0.602C0.257,-0.602 0.229,-0.588 0.213,-0.561C0.197,-0.534 0.189,-0.49 0.188,-0.429L0.188,-0.294C0.188,-0.224 0.196,-0.175 0.212,-0.149C0.227,-0.123 0.255,-0.109 0.293,-0.109C0.331,-0.109 0.357,-0.119 0.371,-0.137C0.385,-0.155 0.394,-0.189 0.396,-0.237L0.539,-0.237Z" style="fill:rgb(118,119,123);fill-rule:nonzero;"/>
            </g>
            <g transform="matrix(30,0,0,30,17.1094,0)">
                <path d="M0.396,-0.146L0.201,-0.146L0.163,-0L0.011,-0L0.233,-0.711L0.364,-0.711L0.588,-0L0.435,-0L0.396,-0.146ZM0.232,-0.265L0.365,-0.265L0.298,-0.519L0.232,-0.265Z" style="fill:rgb(118,119,123);fill-rule:nonzero;"/>
            </g>
            <g transform="matrix(30,0,0,30,35.0244,0)">
                <path d="M0.245,-0.711L0.379,-0.197L0.513,-0.711L0.7,-0.711L0.7,-0L0.556,-0L0.556,-0.192L0.569,-0.489L0.427,-0L0.33,-0L0.188,-0.489L0.201,-0.192L0.201,-0L0.057,-0L0.057,-0.711L0.245,-0.711Z" style="fill:rgb(118,119,123);fill-rule:nonzero;"/>
            </g>
            <g transform="matrix(30,0,0,30,57.7734,0)">
                <path d="M0.424,-0.308L0.201,-0.308L0.201,-0.119L0.465,-0.119L0.465,-0L0.057,-0L0.057,-0.711L0.464,-0.711L0.464,-0.591L0.201,-0.591L0.201,-0.423L0.424,-0.423L0.424,-0.308Z" style="fill:rgb(118,119,123);fill-rule:nonzero;"/>
            </g>
            <g transform="matrix(30,0,0,30,72.4951,0)">
                <path d="M0.272,-0.26L0.201,-0.26L0.201,-0L0.058,-0L0.058,-0.711L0.287,-0.711C0.359,-0.711 0.414,-0.692 0.453,-0.655C0.493,-0.618 0.512,-0.565 0.512,-0.496C0.512,-0.402 0.478,-0.336 0.409,-0.298L0.534,-0.007L0.534,-0L0.379,-0L0.272,-0.26ZM0.201,-0.379L0.283,-0.379C0.311,-0.379 0.333,-0.389 0.347,-0.408C0.361,-0.427 0.369,-0.452 0.369,-0.484C0.369,-0.556 0.341,-0.591 0.285,-0.591L0.201,-0.591L0.201,-0.379Z" style="fill:rgb(118,119,123);fill-rule:nonzero;"/>
            </g>
            <g transform="matrix(30,0,0,30,89.1064,0)">
                <path d="M0.396,-0.146L0.201,-0.146L0.163,-0L0.011,-0L0.233,-0.711L0.364,-0.711L0.588,-0L0.435,-0L0.396,-0.146ZM0.232,-0.265L0.365,-0.265L0.298,-0.519L0.232,-0.265Z" style="fill:rgb(118,119,123);fill-rule:nonzero;"/>
            </g>
            <g transform="matrix(30,0,0,30,107.021,0)">
                <path d="M0.357,-0.187C0.357,-0.215 0.35,-0.237 0.335,-0.252C0.32,-0.267 0.293,-0.282 0.254,-0.298C0.183,-0.325 0.132,-0.357 0.101,-0.393C0.069,-0.43 0.054,-0.472 0.054,-0.522C0.054,-0.582 0.075,-0.63 0.117,-0.666C0.16,-0.703 0.214,-0.721 0.279,-0.721C0.323,-0.721 0.362,-0.712 0.396,-0.693C0.43,-0.675 0.456,-0.649 0.475,-0.615C0.493,-0.582 0.502,-0.544 0.502,-0.501L0.359,-0.501C0.359,-0.534 0.352,-0.559 0.338,-0.577C0.324,-0.594 0.304,-0.603 0.277,-0.603C0.252,-0.603 0.232,-0.596 0.218,-0.581C0.204,-0.566 0.197,-0.546 0.197,-0.521C0.197,-0.501 0.205,-0.484 0.221,-0.468C0.236,-0.452 0.264,-0.436 0.304,-0.419C0.373,-0.394 0.423,-0.363 0.455,-0.327C0.486,-0.29 0.502,-0.244 0.502,-0.188C0.502,-0.126 0.482,-0.077 0.443,-0.042C0.403,-0.008 0.35,0.01 0.282,0.01C0.236,0.01 0.194,0 0.157,-0.019C0.119,-0.037 0.089,-0.064 0.068,-0.1C0.047,-0.135 0.036,-0.176 0.036,-0.224L0.18,-0.224C0.18,-0.183 0.188,-0.153 0.204,-0.135C0.22,-0.116 0.246,-0.107 0.282,-0.107C0.332,-0.107 0.357,-0.133 0.357,-0.187Z" style="fill:rgb(118,119,123);fill-rule:nonzero;"/>
            </g>
        </g>
    </g>
</svg>
